# xmcd
#
# Track frame offsets: 
#        150
#        21213
#        39859
#        58387
#        75927
#        93587
#        110178
#        127580
#        143789
#        159430
#        174077
#        189160
#
# Disc length: 2779 seconds
#
# Revision: 0
# Processed by: cddbd v1.5.2PL0 Copyright (c) Steve Scherf et al.
# Submitted via: ExactAudioCopy v1.0b1
#
DISCID=8b0ad90c
DTITLE=Graeme Connors - Still Walking
DYEAR=2010
DGENRE=Country
TTITLE0=A Good Life
TTITLE1=Somebody's Watching
TTITLE2=A Beach House In The Blue Mountains
TTITLE3=Watching Byron Raise The Flag
TTITLE4=Everybody's Working In The Mine
TTITLE5=Socrates
TTITLE6=The Angelus Bell
TTITLE7=The Piper
TTITLE8=Senior Prom
TTITLE9=I Don't Want To Go there Again
TTITLE10=Not Running Anymore
TTITLE11=All The Money's Gone
EXTD=
EXTT0=
EXTT1=
EXTT2=
EXTT3=
EXTT4=
EXTT5=
EXTT6=
EXTT7=
EXTT8=
EXTT9=
EXTT10=
EXTT11=
PLAYORDER=
